# Blender 3.1.2
# www.blender.org
mtllib grass_block.mtl
o Cube
v -0.500000 -0.500000 0.500000
v -0.500000 0.500000 0.500000
v -0.500000 -0.500000 -0.500000
v -0.500000 0.500000 -0.500000
v 0.500000 -0.500000 0.500000
v 0.500000 0.500000 0.500000
v 0.500000 -0.500000 -0.500000
v 0.500000 0.500000 -0.500000
vn -1.0000 -0.0000 -0.0000
vn -0.0000 -0.0000 -1.0000
vn 1.0000 -0.0000 -0.0000
vn -0.0000 -0.0000 1.0000
vn -0.0000 -1.0000 -0.0000
vn -0.0000 1.0000 -0.0000
vt 0.000000 0.333333
vt 0.250000 -0.000000
vt 0.750000 0.333333
vt 0.250000 0.333333
vt 0.250000 0.666667
vt -0.000000 0.666667
vt 0.250000 1.000000
vt 1.000000 0.333333
vt 0.250000 0.666667
vt 0.500000 0.666667
vt 0.750000 0.333333
vt 0.500000 -0.000000
vt 0.750000 0.666667
vt 0.500000 0.333333
vt 0.250000 0.333333
vt 0.500000 1.000000
vt 0.750000 0.666667
vt 1.000000 0.666667
vt 0.500000 0.666667
vt 0.500000 0.333333
s 0
usemtl Material.001
f 1/1/1 2/4/1 4/9/1 3/6/1
f 3/7/2 4/9/2 8/19/2 7/16/2
f 7/17/3 8/19/3 6/14/3 5/11/3
f 5/12/4 6/14/4 2/4/4 1/2/4
f 3/8/5 7/18/5 5/13/5 1/3/5
f 8/20/6 4/10/6 2/5/6 6/15/6
